<svg id="Group_47958" data-name="Group 47958" xmlns="http://www.w3.org/2000/svg" xmlns:xlink="http://www.w3.org/1999/xlink" width="17.271" height="17.257" viewBox="0 0 17.271 17.257">
  <defs>
    <clipPath id="clip-path">
      <rect id="Rectangle_27808" data-name="Rectangle 27808" width="17.271" height="17.257" fill="#414141"/>
    </clipPath>
  </defs>
  <g id="Group_47957" data-name="Group 47957" clip-path="url(#clip-path)">
    <path id="Path_43900" data-name="Path 43900" d="M0,8.62C0,6.651,0,4.682,0,2.714A2.628,2.628,0,0,1,1.242.434,2.606,2.606,0,0,1,2.64,0H14.513a2.65,2.65,0,0,1,1.416.373,2.569,2.569,0,0,1,1.33,2.252c.022,2.245.008,4.491.007,6.736a.674.674,0,0,1-1.192.441.659.659,0,0,1-.155-.4c0-.068,0-.136,0-.2q0-3.2,0-6.41a1.429,1.429,0,0,0-.174-.746,1.326,1.326,0,0,0-1.147-.69c-.041,0-.082,0-.123,0H2.793a1.448,1.448,0,0,0-.6.1,1.323,1.323,0,0,0-.837,1.175c0,.054,0,.109,0,.163q0,5.838,0,11.676a1.444,1.444,0,0,0,.146.7,1.338,1.338,0,0,0,1.144.741c.068.005.136,0,.2,0q3.363,0,6.726,0a.752.752,0,0,1,.5.15.672.672,0,0,1-.383,1.2c-.032,0-.064,0-.1,0q-3.431,0-6.862,0a2.636,2.636,0,0,1-1.9-.755A2.605,2.605,0,0,1,0,14.567C0,12.584,0,10.6,0,8.62" transform="translate(0 0)" fill="#414141"/>
    <path id="Path_43901" data-name="Path 43901" d="M386.785,381.91c.178.173.351.34.522.509.2.2.4.394.6.6a.673.673,0,0,1-.852,1.034,1.343,1.343,0,0,1-.174-.152q-.487-.484-.973-.971c-.1-.1-.1-.1-.218-.031a3.033,3.033,0,1,1,1.447-3.628,2.963,2.963,0,0,1-.277,2.514c-.02.035-.039.07-.071.128m-2.534-.005a1.682,1.682,0,1,0-1.679-1.695,1.687,1.687,0,0,0,1.679,1.695" transform="translate(-370.833 -366.908)" fill="#414141"/>
    <path id="Path_43902" data-name="Path 43902" d="M251.13,141.115h-2.843a.776.776,0,0,1-.344-.067.674.674,0,0,1,.244-1.284c.036,0,.072,0,.109,0q2.83,0,5.66,0a.966.966,0,0,1,.281.037.666.666,0,0,1,.459.73.68.68,0,0,1-.627.581c-.05,0-.1,0-.15,0H251.13" transform="translate(-240.807 -135.954)" fill="#414141"/>
    <path id="Path_43903" data-name="Path 43903" d="M251.165,289.587q-1.409,0-2.818,0a1,1,0,0,1-.242-.024.665.665,0,0,1-.5-.726.673.673,0,0,1,.655-.6h5.759a.738.738,0,0,1,.427.113.674.674,0,0,1-.337,1.234c-.054,0-.109,0-.163,0h-2.778" transform="translate(-240.85 -280.384)" fill="#414141"/>
    <path id="Path_43904" data-name="Path 43904" d="M248.786,445.216c.154,0,.309,0,.463,0a.675.675,0,1,1,.005,1.349c-.318.005-.635.006-.953,0a.675.675,0,0,1,.008-1.349c.159,0,.318,0,.477,0" transform="translate(-240.889 -433.082)" fill="#414141"/>
    <path id="Path_43905" data-name="Path 43905" d="M124.876,141.036c-.109,0-.218,0-.326,0a.675.675,0,0,1-.006-1.35q.34-.007.68,0a.675.675,0,0,1-.007,1.35c-.113,0-.227,0-.34,0" transform="translate(-120.496 -135.876)" fill="#414141"/>
    <path id="Path_43906" data-name="Path 43906" d="M124.881,445.223c.113,0,.227,0,.34,0a.675.675,0,0,1,.006,1.349q-.346.009-.693,0a.675.675,0,0,1,.008-1.349c.113,0,.227,0,.34,0" transform="translate(-120.494 -433.089)" fill="#414141"/>
    <path id="Path_43907" data-name="Path 43907" d="M124.893,288.249c.118,0,.236,0,.353,0a.672.672,0,0,1,.016,1.342c-.249.011-.5.009-.747,0a.672.672,0,0,1,.011-1.343c.122,0,.245,0,.367,0" transform="translate(-120.498 -280.393)" fill="#414141"/>
  </g>
</svg>
