<svg xmlns="http://www.w3.org/2000/svg" width="140.73" height="154.946" viewBox="0 0 223.73 174.946">
  <g id="Group_46288" data-name="Group 46288" transform="matrix(0.883, -0.469, 0.469, 0.883, -26.663, 91.236)">
    <rect id="Rectangle_2" data-name="Rectangle 2" width="9.676" height="9.676" transform="translate(224.237 38.419)" fill="#5283c7" opacity="0.5"/>
    <rect id="Rectangle_3" data-name="Rectangle 3" width="9.676" height="9.676" transform="translate(206.129 95.446)" fill="#5283c7"/>
    <rect id="Rectangle_4" data-name="Rectangle 4" width="9.676" height="9.676" transform="translate(186.92 114.655)" fill="#5283c7"/>
    <rect id="Rectangle_5" data-name="Rectangle 5" width="9.676" height="9.676" transform="translate(206.129 20.41)" fill="#5283c7"/>
    <rect id="Rectangle_6" data-name="Rectangle 6" width="9.676" height="9.676" transform="translate(203.728 38.419)" fill="#5283c7"/>
    <rect id="Rectangle_7" data-name="Rectangle 7" width="9.676" height="9.676" transform="translate(186.319 38.419)" fill="#5283c7" opacity="0.5"/>
    <rect id="Rectangle_8" data-name="Rectangle 8" width="9.676" height="9.676" transform="translate(103.578 48.023)" fill="#5283c7" opacity="0.5"/>
    <rect id="Rectangle_9" data-name="Rectangle 9" width="9.676" height="9.676" transform="translate(56.155 22.811)" fill="#5283c7"/>
    <rect id="Rectangle_10" data-name="Rectangle 10" width="9.676" height="9.676" transform="translate(56.155)" fill="#5283c7"/>
    <rect id="Rectangle_11" data-name="Rectangle 11" width="9.676" height="9.676" transform="translate(38.747 18.609)" fill="#5283c7" opacity="0.5"/>
    <rect id="Rectangle_13" data-name="Rectangle 13" width="9.676" height="9.676" transform="translate(142.597 67.833)" fill="#5283c7"/>
    <rect id="Rectangle_14" data-name="Rectangle 14" width="9.676" height="9.676" transform="translate(160.606 67.833)" fill="#5283c7" opacity="0.6"/>
    <rect id="Rectangle_15" data-name="Rectangle 15" width="9.676" height="9.676" transform="translate(123.388 48.023)" fill="#5283c7"/>
    <rect id="Rectangle_16" data-name="Rectangle 16" width="9.676" height="9.676" transform="translate(142.597 48.023)" fill="#5283c7" opacity="0.5"/>
    <rect id="Rectangle_17" data-name="Rectangle 17" width="9.676" height="9.676" transform="translate(160.606 48.023)" fill="#5283c7"/>
    <rect id="Rectangle_18" data-name="Rectangle 18" width="9.676" height="9.676" transform="translate(83.069 48.023)" fill="#5283c7"/>
    <rect id="Rectangle_19" data-name="Rectangle 19" width="9.676" height="9.676" transform="translate(56.056 87.042)" fill="#5283c7"/>
    <rect id="Rectangle_20" data-name="Rectangle 20" width="9.676" height="9.676" transform="translate(56.656 115.256)" fill="#5283c7"/>
    <rect id="Rectangle_21" data-name="Rectangle 21" width="9.676" height="9.676" transform="translate(38.648 97.247)" fill="#5283c7" opacity="0.5"/>
    <rect id="Rectangle_22" data-name="Rectangle 22" width="9.676" height="9.676" transform="translate(41.649 57.028)" fill="#5283c7"/>
    <rect id="Rectangle_23" data-name="Rectangle 23" width="9.676" height="9.676" transform="translate(65.661 48.023)" fill="#5283c7" opacity="0.5"/>
    <rect id="Rectangle_24" data-name="Rectangle 24" width="9.676" height="9.676" transform="translate(186.92 1.201)" fill="#5283c7"/>
    <rect id="Rectangle_25" data-name="Rectangle 25" width="9.677" height="9.676" transform="translate(237.542 58.725)" fill="#5283c7"/>
    <rect id="Rectangle_26" data-name="Rectangle 26" width="9.676" height="9.676" transform="translate(224.237 77.334)" fill="#5283c7"/>
    <rect id="Rectangle_27" data-name="Rectangle 27" width="9.676" height="9.676" transform="translate(205.628 77.934)" fill="#5283c7" opacity="0.5"/>
    <rect id="Rectangle_28" data-name="Rectangle 28" width="9.676" height="9.676" transform="translate(187.019 77.934)" fill="#5283c7"/>
    <path id="Path_37983" data-name="Path 37983" d="M362,94.612h11.137v11.136H362Zm1.46,9.675h8.216V96.071H363.46Z" transform="translate(-144.695 -37.817)" fill="#5283c7" opacity="0.56"/>
    <path id="Path_37984" data-name="Path 37984" d="M312,32.612h11.137V43.748H312Zm1.46,9.675h8.216V34.071H313.46Z" transform="translate(-124.709 -13.035)" fill="#5283c7"/>
    <path id="Path_37985" data-name="Path 37985" d="M326,94.612h11.137v11.136H326Zm1.46,9.675h8.216V96.071H327.46Z" transform="translate(-130.305 -37.817)" fill="#5283c7"/>
    <path id="Path_37986" data-name="Path 37986" d="M310,158.612h11.137v11.136H310Zm1.46,9.675h8.216v-8.216H311.46Z" transform="translate(-123.91 -63.399)" fill="#5283c7" opacity="0.6"/>
    <path id="Path_37987" data-name="Path 37987" d="M291,94.612h11.137v11.136H291Zm1.46,9.675h8.216V96.071H292.46Z" transform="translate(-116.316 -37.817)" fill="#5283c7"/>
    <path id="Path_37988" data-name="Path 37988" d="M68,126.612H79.136v11.136H68Zm1.46,9.675h8.216v-8.216H69.46Z" transform="translate(-27.18 -50.608)" fill="#5283c7" opacity="0.5"/>
    <rect id="Rectangle_12" data-name="Rectangle 12" width="9.676" height="9.676" transform="translate(108.052 67.833)" fill="#5283c7"/>
    <path id="Path_37989" data-name="Path 37989" d="M180,111.612h11.136v11.136H180Zm1.46,9.675h8.216v-8.216H181.46Z" transform="translate(-58.072 -44.612)" fill="#5283c7" opacity="0.5"/>
    <path id="Path_37990" data-name="Path 37990" d="M78,63.612H89.136V74.748H78Zm1.46,9.675h8.216V65.071H79.46Z" transform="translate(-31.177 -25.426)" fill="#5283c7"/>
    <path id="Path_37991" data-name="Path 37991" d="M144,111.612h11.136v11.136H144Zm1.46,9.675h8.216v-8.216H145.46Z" transform="translate(-57.558 -44.612)" fill="#5283c7" opacity="0.5"/>
    <path id="Path_37992" data-name="Path 37992" d="M32,93.612H43.136v11.136H32Zm1.46,9.675h8.216V95.071H33.46Z" transform="translate(-12.791 -37.418)" fill="#5283c7" opacity="0.5"/>
    <path id="Path_37993" data-name="Path 37993" d="M31,130.612H42.136v11.136H31Zm1.46,9.675h8.216v-8.216H32.46Z" transform="translate(-12.391 -52.207)" fill="#5283c7"/>
    <path id="Path_37994" data-name="Path 37994" d="M32,60.612H43.136V71.748H32Zm1.46,9.675h8.216V62.071H33.46Z" transform="translate(-12.791 -24.227)" fill="#5283c7"/>
    <path id="Path_37995" data-name="Path 37995" d="M109,111.612h11.136v11.136H109Zm1.46,9.675h8.216v-8.216H110.46Z" transform="translate(-43.568 -44.612)" fill="#5283c7"/>
    <path id="Path_37996" data-name="Path 37996" d="M1.46,96.072H9.676v8.216H1.46ZM0,105.748H11.137V94.612H0Z" transform="translate(0 -37.817)" fill="#5283c7"/>
  </g>
</svg>
