<svg xmlns="http://www.w3.org/2000/svg" width="17.701" height="17.7" viewBox="0 0 23.701 23.7">
  <g id="Group_47572" data-name="Group 47572" transform="translate(-0.317 -0.317)">
    <path id="Path_43435" data-name="Path 43435" d="M15.357,12.288a17.481,17.481,0,0,0-2.156.189.839.839,0,0,0-.724.724,17.481,17.481,0,0,0-.189,2.156,17.481,17.481,0,0,0,.189,2.156.839.839,0,0,0,.724.724,17.452,17.452,0,0,0,2.156.189,17.452,17.452,0,0,0,2.156-.189.839.839,0,0,0,.724-.724,17.481,17.481,0,0,0,.189-2.156,17.481,17.481,0,0,0-.189-2.156.839.839,0,0,0-.724-.724A17.481,17.481,0,0,0,15.357,12.288Zm-2.489-2.244a3.294,3.294,0,0,0-2.824,2.824,19.743,19.743,0,0,0-.211,2.489,19.743,19.743,0,0,0,.211,2.489,3.294,3.294,0,0,0,2.824,2.824,19.756,19.756,0,0,0,2.489.211,19.756,19.756,0,0,0,2.489-.211,3.294,3.294,0,0,0,2.824-2.824,19.756,19.756,0,0,0,.211-2.489,19.756,19.756,0,0,0-.211-2.489,3.294,3.294,0,0,0-2.824-2.824,19.743,19.743,0,0,0-2.489-.211A19.743,19.743,0,0,0,12.869,10.044Z" transform="translate(2.787 2.786)" fill="#fff" stroke="#006ceb" stroke-width="0.7" fill-rule="evenodd"/>
    <path id="Path_43436" data-name="Path 43436" d="M6.19,12.288a17.48,17.48,0,0,0-2.156.189.839.839,0,0,0-.724.724,17.478,17.478,0,0,0-.189,2.156,17.478,17.478,0,0,0,.189,2.156.839.839,0,0,0,.724.724,17.451,17.451,0,0,0,2.156.189,17.451,17.451,0,0,0,2.156-.189.839.839,0,0,0,.725-.724,17.478,17.478,0,0,0,.189-2.156A17.478,17.478,0,0,0,9.071,13.2a.839.839,0,0,0-.725-.724A17.48,17.48,0,0,0,6.19,12.288ZM3.7,10.044A3.294,3.294,0,0,0,.878,12.868a19.744,19.744,0,0,0-.211,2.489,19.744,19.744,0,0,0,.211,2.489A3.294,3.294,0,0,0,3.7,20.669a19.756,19.756,0,0,0,2.489.211,19.757,19.757,0,0,0,2.489-.211A3.294,3.294,0,0,0,11.5,17.846a19.743,19.743,0,0,0,.211-2.489,19.743,19.743,0,0,0-.211-2.489,3.294,3.294,0,0,0-2.824-2.824A19.744,19.744,0,0,0,6.19,9.833,19.743,19.743,0,0,0,3.7,10.044Z" transform="translate(0 2.786)" fill="#fff" stroke="#006ceb" stroke-width="0.7" fill-rule="evenodd"/>
    <path id="Path_43437" data-name="Path 43437" d="M15.255,3.076a17.157,17.157,0,0,0-2.116.185.823.823,0,0,0-.711.711,17.156,17.156,0,0,0-.185,2.116A17.156,17.156,0,0,0,12.428,8.2a.823.823,0,0,0,.711.711,17.154,17.154,0,0,0,2.116.185,17.154,17.154,0,0,0,2.116-.185.823.823,0,0,0,.711-.711,17.155,17.155,0,0,0,.185-2.116,17.155,17.155,0,0,0-.185-2.116.823.823,0,0,0-.711-.711A17.157,17.157,0,0,0,15.255,3.076ZM12.812.874a3.233,3.233,0,0,0-2.771,2.771,19.377,19.377,0,0,0-.207,2.443,19.378,19.378,0,0,0,.207,2.443A3.233,3.233,0,0,0,12.812,11.3a19.376,19.376,0,0,0,2.443.207A19.376,19.376,0,0,0,17.7,11.3a3.233,3.233,0,0,0,2.771-2.771,19.391,19.391,0,0,0,.207-2.443,19.39,19.39,0,0,0-.207-2.443A3.233,3.233,0,0,0,17.7.874,19.378,19.378,0,0,0,15.255.667,19.378,19.378,0,0,0,12.812.874Z" transform="translate(2.992 0)" fill="#fff" stroke="#006ceb" stroke-width="0.7" fill-rule="evenodd"/>
    <path id="Path_43438" data-name="Path 43438" d="M6.088,3.076a17.155,17.155,0,0,0-2.116.185.823.823,0,0,0-.711.711,17.152,17.152,0,0,0-.185,2.116A17.152,17.152,0,0,0,3.261,8.2a.823.823,0,0,0,.711.711A17.153,17.153,0,0,0,6.088,9.1,17.152,17.152,0,0,0,8.2,8.915.823.823,0,0,0,8.914,8.2,17.152,17.152,0,0,0,9.1,6.088a17.152,17.152,0,0,0-.185-2.116A.823.823,0,0,0,8.2,3.261,17.154,17.154,0,0,0,6.088,3.076ZM3.645.874A3.233,3.233,0,0,0,.874,3.646,19.378,19.378,0,0,0,.667,6.088,19.378,19.378,0,0,0,.874,8.531,3.233,3.233,0,0,0,3.645,11.3a19.376,19.376,0,0,0,2.443.207A19.377,19.377,0,0,0,8.53,11.3,3.233,3.233,0,0,0,11.3,8.531a19.377,19.377,0,0,0,.207-2.443A19.377,19.377,0,0,0,11.3,3.646,3.233,3.233,0,0,0,8.53.874,19.378,19.378,0,0,0,6.088.667,19.378,19.378,0,0,0,3.645.874Z" transform="translate(0 0)" fill="#fff" stroke="#006ceb" stroke-width="0.7" fill-rule="evenodd"/>
  </g>
</svg>
