<svg id="Group_47792" data-name="Group 47792" xmlns="http://www.w3.org/2000/svg" width="35" height="35.2" viewBox="0 0 35 35.2">
  <rect id="Rectangle_27797" data-name="Rectangle 27797" width="35" height="35.2" rx="6" fill="#006ceb"/>
  <g id="Group_47791" data-name="Group 47791" transform="translate(10.705 8.879)">
    <path id="Path_44005" data-name="Path 44005" d="M14.032,2H5.824A1.824,1.824,0,0,0,4,3.824V18.416A1.824,1.824,0,0,0,5.824,20.24H16.768a1.824,1.824,0,0,0,1.824-1.824V6.56Z" transform="translate(-4 -2)" fill="none" stroke="#fff" stroke-linecap="round" stroke-linejoin="round" stroke-width="1.3"/>
    <path id="Path_44006" data-name="Path 44006" d="M14,2V5.648a1.824,1.824,0,0,0,1.824,1.824h3.648" transform="translate(-4.88 -2)" fill="none" stroke="#fff" stroke-linecap="round" stroke-linejoin="round" stroke-width="1.3"/>
    <path id="Path_44007" data-name="Path 44007" d="M12,17.472V12" transform="translate(-4.704 -2.88)" fill="none" stroke="#fff" stroke-linecap="round" stroke-linejoin="round" stroke-width="1.3"/>
    <path id="Path_44008" data-name="Path 44008" d="M9,15l2.736,2.736L14.472,15" transform="translate(-4.44 -3.144)" fill="none" stroke="#fff" stroke-linecap="round" stroke-linejoin="round" stroke-width="1.3"/>
  </g>
</svg>
