<svg xmlns="http://www.w3.org/2000/svg" width="22.031" height="22.03" viewBox="0 0 16.031 16.03">
  <g id="Group_47993" data-name="Group 47993" transform="translate(-0.667 -0.667)">
    <path id="Path_43435" data-name="Path 43435" d="M13.44,11.436a11.415,11.415,0,0,0-1.408.123.548.548,0,0,0-.473.473,11.415,11.415,0,0,0-.123,1.408,11.415,11.415,0,0,0,.123,1.408.548.548,0,0,0,.473.473,11.4,11.4,0,0,0,1.408.123,11.4,11.4,0,0,0,1.408-.123.548.548,0,0,0,.473-.473,11.415,11.415,0,0,0,.123-1.408,11.415,11.415,0,0,0-.123-1.408.548.548,0,0,0-.473-.473A11.415,11.415,0,0,0,13.44,11.436ZM11.815,9.971a2.151,2.151,0,0,0-1.844,1.844,12.892,12.892,0,0,0-.138,1.625,12.892,12.892,0,0,0,.138,1.625,2.151,2.151,0,0,0,1.844,1.844,12.9,12.9,0,0,0,1.625.138,12.9,12.9,0,0,0,1.625-.138,2.151,2.151,0,0,0,1.844-1.844,12.9,12.9,0,0,0,.138-1.625,12.9,12.9,0,0,0-.138-1.625,2.151,2.151,0,0,0-1.844-1.844,12.891,12.891,0,0,0-1.625-.138A12.891,12.891,0,0,0,11.815,9.971Z" transform="translate(-0.35 -0.35)" fill="#414141" fill-rule="evenodd"/>
    <path id="Path_43436" data-name="Path 43436" d="M4.273,11.436a11.414,11.414,0,0,0-1.408.123.548.548,0,0,0-.473.473A11.413,11.413,0,0,0,2.27,13.44a11.413,11.413,0,0,0,.123,1.408.548.548,0,0,0,.473.473,11.4,11.4,0,0,0,1.408.123,11.4,11.4,0,0,0,1.408-.123.548.548,0,0,0,.473-.473,11.413,11.413,0,0,0,.123-1.408,11.413,11.413,0,0,0-.123-1.408.548.548,0,0,0-.473-.473A11.414,11.414,0,0,0,4.273,11.436ZM2.648,9.971A2.151,2.151,0,0,0,.8,11.815,12.892,12.892,0,0,0,.667,13.44,12.892,12.892,0,0,0,.8,15.065a2.151,2.151,0,0,0,1.844,1.844,12.9,12.9,0,0,0,1.625.138A12.9,12.9,0,0,0,5.9,16.909a2.151,2.151,0,0,0,1.844-1.844A12.891,12.891,0,0,0,7.88,13.44a12.891,12.891,0,0,0-.138-1.625A2.151,2.151,0,0,0,5.9,9.971a12.892,12.892,0,0,0-1.625-.138A12.892,12.892,0,0,0,2.648,9.971Z" transform="translate(0 -0.35)" fill="#414141" fill-rule="evenodd"/>
    <path id="Path_43437" data-name="Path 43437" d="M13.44,2.27a11.415,11.415,0,0,0-1.408.123.548.548,0,0,0-.473.473,11.414,11.414,0,0,0-.123,1.408,11.414,11.414,0,0,0,.123,1.408.548.548,0,0,0,.473.473,11.413,11.413,0,0,0,1.408.123,11.413,11.413,0,0,0,1.408-.123.548.548,0,0,0,.473-.473,11.414,11.414,0,0,0,.123-1.408,11.414,11.414,0,0,0-.123-1.408.548.548,0,0,0-.473-.473A11.415,11.415,0,0,0,13.44,2.27ZM11.815.8A2.151,2.151,0,0,0,9.971,2.649a12.892,12.892,0,0,0-.138,1.625A12.892,12.892,0,0,0,9.971,5.9a2.151,2.151,0,0,0,1.844,1.844,12.891,12.891,0,0,0,1.625.138,12.891,12.891,0,0,0,1.625-.138A2.151,2.151,0,0,0,16.909,5.9a12.9,12.9,0,0,0,.138-1.625,12.9,12.9,0,0,0-.138-1.625A2.151,2.151,0,0,0,15.066.8,12.892,12.892,0,0,0,13.44.667,12.892,12.892,0,0,0,11.815.8Z" transform="translate(-0.35 0)" fill="#414141" fill-rule="evenodd"/>
    <path id="Path_43438" data-name="Path 43438" d="M4.273,2.27a11.414,11.414,0,0,0-1.408.123.548.548,0,0,0-.473.473A11.412,11.412,0,0,0,2.27,4.274a11.412,11.412,0,0,0,.123,1.408.548.548,0,0,0,.473.473,11.412,11.412,0,0,0,1.408.123,11.412,11.412,0,0,0,1.408-.123.548.548,0,0,0,.473-.473,11.412,11.412,0,0,0,.123-1.408,11.412,11.412,0,0,0-.123-1.408.548.548,0,0,0-.473-.473A11.414,11.414,0,0,0,4.273,2.27ZM2.648.8A2.151,2.151,0,0,0,.8,2.649,12.893,12.893,0,0,0,.667,4.274,12.893,12.893,0,0,0,.8,5.9,2.151,2.151,0,0,0,2.648,7.743a12.892,12.892,0,0,0,1.625.138A12.892,12.892,0,0,0,5.9,7.743,2.151,2.151,0,0,0,7.742,5.9,12.892,12.892,0,0,0,7.88,4.274a12.892,12.892,0,0,0-.138-1.625A2.151,2.151,0,0,0,5.9.8,12.893,12.893,0,0,0,4.273.667,12.893,12.893,0,0,0,2.648.8Z" transform="translate(0 0)" fill="#414141" fill-rule="evenodd"/>
  </g>
</svg>
