<svg xmlns="http://www.w3.org/2000/svg" width="18.998" height="18.006" viewBox="0 0 18.998 19.006">
  <g id="Group_46468" data-name="Group 46468" transform="translate(-8589.497 -1205.5)">
    <path id="Path_42261" data-name="Path 42261" d="M323.922,157.5a1.556,1.556,0,0,1-1.4-1.282,2.44,2.44,0,0,1-.022-.38q0-7.9,0-15.793a1.551,1.551,0,0,1,1.284-1.521,2.365,2.365,0,0,1,.38-.023h12.12a2.535,2.535,0,0,1,.38.021,1.545,1.545,0,0,1,1.289,1.338,3.775,3.775,0,0,1,.013.381q0,4.454,0,8.91a.012.012,0,0,0,.011.013,4.2,4.2,0,0,1-.8,8.338,3.3,3.3,0,0,0-.511-.015,2.082,2.082,0,0,1-.257.02H324.3Q323.991,157.506,323.922,157.5Zm10.315-1.323a4.276,4.276,0,0,1-.957-1.672,4.2,4.2,0,0,1,3.349-5.343.012.012,0,0,0,.01-.012q0-4.541,0-9.081c0-.194-.131-.244-.3-.244h-12.24c-.223,0-.273.106-.273.318v15.742c0,.244.1.3.334.3h10.078l0,0A0,0,0,0,0,334.236,156.176Zm5.934-2.87a2.871,2.871,0,1,0-2.871,2.871A2.871,2.871,0,0,0,340.171,153.306Z" transform="translate(8267 1067)" fill="#414141"/>
    <rect id="Rectangle_27372" data-name="Rectangle 27372" width="9.269" height="1.324" rx="0.662" transform="translate(8592.593 1209.044) rotate(-0.1)" fill="#414141"/>
    <rect id="Rectangle_27373" data-name="Rectangle 27373" width="9.272" height="1.323" rx="0.662" transform="translate(8592.593 1212.571)" fill="#414141"/>
    <rect id="Rectangle_27374" data-name="Rectangle 27374" width="7.061" height="1.323" rx="0.662" transform="translate(8592.593 1216.113) rotate(-0.1)" fill="#414141"/>
    <path id="Path_42264" data-name="Path 42264" d="M1065.822,790.152c.211.2.418.411.62.621a1.081,1.081,0,0,1,.18.226.662.662,0,0,1-.735.947.673.673,0,0,1-.325-.183q-.416-.411-.827-.826a.706.706,0,0,1-.245-.57q0-.774,0-1.548a1.464,1.464,0,0,1,.03-.359.66.66,0,0,1,1.2-.154.711.711,0,0,1,.1.375q0,.727,0,1.455A.023.023,0,0,0,1065.822,790.152Z" transform="translate(7539.148 429.888)" fill="#414141"/>
    <rect id="Rectangle_27375" data-name="Rectangle 27375" width="6.175" height="1.327" rx="0.663" transform="translate(8592.596 1219.637) rotate(0.1)" fill="#414141"/>
  </g>
</svg>
