<svg xmlns="http://www.w3.org/2000/svg" width="17.547" height="17.547" viewBox="0 0 18.547 18.547">
  <g id="Group_47943" data-name="Group 47943" transform="translate(-1.25 -1.25)">
    <path id="Path_43896" data-name="Path 43896" d="M3.7,19.047H17.342a1.7,1.7,0,0,0,1.7-1.7V3.7a1.7,1.7,0,0,0-1.7-1.7H7.114a1.7,1.7,0,0,0-1.7,1.7V17.342A1.7,1.7,0,0,1,3.7,19.047Zm0,0a1.7,1.7,0,0,1-1.7-1.7V9.671a1.71,1.71,0,0,1,1.7-1.7h1.7" fill="none" stroke="#414141" stroke-linecap="round" stroke-linejoin="round" stroke-width="1.5"/>
    <path id="Path_43897" data-name="Path 43897" d="M16.819,14H10" transform="translate(-1.181 -1.772)" fill="none" stroke="#414141" stroke-linecap="round" stroke-linejoin="round" stroke-width="1.5"/>
    <path id="Path_43898" data-name="Path 43898" d="M14.262,18H10" transform="translate(-1.181 -2.362)" fill="none" stroke="#414141" stroke-linecap="round" stroke-linejoin="round" stroke-width="1.5"/>
    <path id="Path_43899" data-name="Path 43899" d="M10,6h6.819V9.409H10Z" transform="translate(-1.181 -0.591)" fill="none" stroke="#414141" stroke-linecap="round" stroke-linejoin="round" stroke-width="1.5"/>
  </g>
</svg>
